<mxfile host="app.diagrams.net" agent="Mozilla/5.0 (Windows NT 10.0; Win64; x64) AppleWebKit/537.36 (KHTML, like Gecko) Chrome/134.0.0.0 Safari/537.36" version="26.2.4">
  <diagram name="Página-1" id="_pg9Lf5RS5XWuFxiy_4Z">
    <mxGraphModel dx="874" dy="449" grid="1" gridSize="10" guides="1" tooltips="1" connect="1" arrows="1" fold="1" page="1" pageScale="1" pageWidth="827" pageHeight="1169" math="0" shadow="0">
      <root>
        <mxCell id="0" />
        <mxCell id="1" parent="0" />
        <mxCell id="pb7jbsCZvmm0ehDc9T9Q-1" value="" style="rounded=1;whiteSpace=wrap;html=1;gradientColor=none;" vertex="1" parent="1">
          <mxGeometry x="230" y="50" width="400" height="260" as="geometry" />
        </mxCell>
        <mxCell id="pb7jbsCZvmm0ehDc9T9Q-2" value="&lt;font style=&quot;font-size: 16px;&quot;&gt;Consulta médica&lt;/font&gt;" style="text;html=1;align=center;verticalAlign=middle;resizable=0;points=[];autosize=1;strokeColor=none;fillColor=none;" vertex="1" parent="1">
          <mxGeometry x="360" y="60" width="140" height="30" as="geometry" />
        </mxCell>
        <mxCell id="pb7jbsCZvmm0ehDc9T9Q-8" style="edgeStyle=orthogonalEdgeStyle;rounded=0;orthogonalLoop=1;jettySize=auto;html=1;" edge="1" parent="1" source="pb7jbsCZvmm0ehDc9T9Q-3" target="pb7jbsCZvmm0ehDc9T9Q-4">
          <mxGeometry relative="1" as="geometry" />
        </mxCell>
        <mxCell id="pb7jbsCZvmm0ehDc9T9Q-3" value="Consulta agendada" style="ellipse;whiteSpace=wrap;html=1;" vertex="1" parent="1">
          <mxGeometry x="340" y="100" width="96" height="70" as="geometry" />
        </mxCell>
        <mxCell id="pb7jbsCZvmm0ehDc9T9Q-9" style="edgeStyle=orthogonalEdgeStyle;rounded=0;orthogonalLoop=1;jettySize=auto;html=1;" edge="1" parent="1" source="pb7jbsCZvmm0ehDc9T9Q-4" target="pb7jbsCZvmm0ehDc9T9Q-5">
          <mxGeometry relative="1" as="geometry" />
        </mxCell>
        <mxCell id="pb7jbsCZvmm0ehDc9T9Q-25" style="edgeStyle=orthogonalEdgeStyle;rounded=0;orthogonalLoop=1;jettySize=auto;html=1;entryX=1;entryY=0.5;entryDx=0;entryDy=0;exitX=0.5;exitY=1;exitDx=0;exitDy=0;" edge="1" parent="1" source="pb7jbsCZvmm0ehDc9T9Q-4" target="pb7jbsCZvmm0ehDc9T9Q-15">
          <mxGeometry relative="1" as="geometry">
            <mxPoint x="525.0000232958876" y="179.0344827586207" as="sourcePoint" />
            <mxPoint x="346.99999999999704" y="244" as="targetPoint" />
            <Array as="points">
              <mxPoint x="540" y="170" />
              <mxPoint x="540" y="180" />
              <mxPoint x="346" y="180" />
              <mxPoint x="346" y="200" />
            </Array>
          </mxGeometry>
        </mxCell>
        <mxCell id="pb7jbsCZvmm0ehDc9T9Q-4" value="Consulta a confirmar" style="ellipse;whiteSpace=wrap;html=1;" vertex="1" parent="1">
          <mxGeometry x="500" y="100" width="96" height="70" as="geometry" />
        </mxCell>
        <mxCell id="pb7jbsCZvmm0ehDc9T9Q-26" style="edgeStyle=orthogonalEdgeStyle;rounded=0;orthogonalLoop=1;jettySize=auto;html=1;entryX=1;entryY=0.5;entryDx=0;entryDy=0;" edge="1" parent="1" source="pb7jbsCZvmm0ehDc9T9Q-5" target="pb7jbsCZvmm0ehDc9T9Q-18">
          <mxGeometry relative="1" as="geometry" />
        </mxCell>
        <mxCell id="pb7jbsCZvmm0ehDc9T9Q-5" value="Consulta realizada" style="ellipse;whiteSpace=wrap;html=1;" vertex="1" parent="1">
          <mxGeometry x="500" y="200" width="96" height="70" as="geometry" />
        </mxCell>
        <mxCell id="pb7jbsCZvmm0ehDc9T9Q-14" style="edgeStyle=orthogonalEdgeStyle;rounded=0;orthogonalLoop=1;jettySize=auto;html=1;endArrow=open;endFill=0;" edge="1" parent="1" source="pb7jbsCZvmm0ehDc9T9Q-10" target="pb7jbsCZvmm0ehDc9T9Q-3">
          <mxGeometry relative="1" as="geometry">
            <Array as="points">
              <mxPoint x="290" y="135" />
              <mxPoint x="290" y="135" />
            </Array>
          </mxGeometry>
        </mxCell>
        <mxCell id="pb7jbsCZvmm0ehDc9T9Q-10" value="" style="ellipse;fillColor=strokeColor;html=1;" vertex="1" parent="1">
          <mxGeometry x="250" y="123.75" width="20" height="22.5" as="geometry" />
        </mxCell>
        <mxCell id="pb7jbsCZvmm0ehDc9T9Q-15" value="" style="ellipse;html=1;shape=endState;fillColor=strokeColor;shadow=0;perimeterSpacing=2;rotation=0;strokeColor=default;" vertex="1" parent="1">
          <mxGeometry x="300" y="190" width="20" height="20" as="geometry" />
        </mxCell>
        <mxCell id="pb7jbsCZvmm0ehDc9T9Q-18" value="" style="ellipse;html=1;shape=endState;fillColor=strokeColor;shadow=0;perimeterSpacing=2;rotation=0;strokeColor=default;" vertex="1" parent="1">
          <mxGeometry x="404" y="250" width="20" height="20" as="geometry" />
        </mxCell>
        <mxCell id="pb7jbsCZvmm0ehDc9T9Q-20" value="&lt;font style=&quot;font-size: 10px;&quot;&gt;Consulta&amp;nbsp;&lt;/font&gt;&lt;div&gt;&lt;font style=&quot;font-size: 10px;&quot;&gt;Cancelada&lt;/font&gt;&lt;/div&gt;" style="text;html=1;align=center;verticalAlign=middle;resizable=0;points=[];autosize=1;strokeColor=none;fillColor=none;" vertex="1" parent="1">
          <mxGeometry x="277" y="204" width="70" height="40" as="geometry" />
        </mxCell>
        <mxCell id="pb7jbsCZvmm0ehDc9T9Q-21" value="&lt;font style=&quot;font-size: 10px;&quot;&gt;Consulta&amp;nbsp;&lt;/font&gt;&lt;div&gt;&lt;span style=&quot;font-size: 10px;&quot;&gt;Realizada&lt;/span&gt;&lt;/div&gt;" style="text;html=1;align=center;verticalAlign=middle;resizable=0;points=[];autosize=1;strokeColor=none;fillColor=none;" vertex="1" parent="1">
          <mxGeometry x="381" y="262" width="70" height="40" as="geometry" />
        </mxCell>
      </root>
    </mxGraphModel>
  </diagram>
</mxfile>
